<svg xmlns="http://www.w3.org/2000/svg" width="2600" height="400" viewBox="0 0 2600 400"><rect width="100%" height="100%" fill="#DDDDDD"/><path fill="#999999" d="M847.1 249.3h37.1q4 0 6.35 2.25t2.35 5.95v14.8h-99.2v-8.2q0-2.5 1.05-5.25t3.35-4.95l43.9-44q5.5-5.6 9.85-10.7t7.25-10.1 4.45-10.15 1.55-10.85q0-5.2-1.5-9.15t-4.25-6.65-6.6-4.05-8.65-1.35q-4.4 0-8.15 1.25t-6.65 3.5-4.9 5.25-3 6.6q-1.7 4.6-4.4 6.1t-7.8.7l-13-2.3q1.5-10.4 5.8-18.25t10.75-13.1 14.8-7.9 17.95-2.65q10 0 18.3 2.95t14.2 8.35 9.2 13 3.3 16.9q0 8-2.35 14.8t-6.3 13-9.25 12-11.1 11.8l-32.6 33.3q4.7-1.4 9.35-2.15t8.85-.75m150.1-121.6-42.9 52.5-5 6.2q4.2-2.1 9.05-3.25T968.8 182q8.2 0 15.95 2.7t13.65 8.15 9.5 13.55 3.6 18.9q0 10.1-3.7 18.95t-10.4 15.45-16.15 10.4-20.85 3.8q-11.6 0-20.8-3.7t-15.7-10.35-9.95-16-3.45-20.75q0-10.2 4.15-20.95t12.85-22.35l34.5-46.3q1.8-2.4 5.25-4.1t7.95-1.7zm-37.3 126q5.9 0 10.85-2t8.5-5.6 5.55-8.45 2-10.55q0-6.2-1.9-11.15t-5.4-8.4-8.4-5.25-10.8-1.8-10.7 2-8.2 5.55-5.3 8.4-1.9 10.45q0 6 1.65 10.95t4.9 8.45 8.05 5.45 11.1 1.95m169.2-53.7q0 18.9-4.05 32.85t-11.2 23.05-16.9 13.55-21.05 4.45-20.95-4.45-16.75-13.55-11.1-23.05-4-32.85q0-19 4-32.9t11.1-23 16.75-13.55 20.95-4.45 21.05 4.45 16.9 13.55 11.2 23 4.05 32.9m-25.5 0q0-15.7-2.3-26t-6.15-16.4-8.85-8.55-10.4-2.45q-5.3 0-10.25 2.45t-8.75 8.55-6.05 16.4-2.25 26 2.25 26 6.05 16.4 8.75 8.55 10.25 2.45q5.4 0 10.4-2.45t8.85-8.55 6.15-16.4 2.3-26m141.5 0q0 18.9-4.05 32.85t-11.2 23.05-16.9 13.55-21.05 4.45-20.95-4.45-16.75-13.55-11.1-23.05-4-32.85q0-19 4-32.9t11.1-23 16.75-13.55 20.95-4.45 21.05 4.45 16.9 13.55 11.2 23 4.05 32.9m-25.5 0q0-15.7-2.3-26t-6.15-16.4-8.85-8.55-10.4-2.45q-5.3 0-10.25 2.45t-8.75 8.55-6.05 16.4-2.25 26 2.25 26 6.05 16.4 8.75 8.55 10.25 2.45q5.4 0 10.4-2.45t8.85-8.55 6.15-16.4 2.3-26m184.3 39.2-13.1 12.9-33.9-33.9-34.2 34.1-13.1-12.9 34.2-34.3-32.6-32.6 13-13 32.6 32.6 32.4-32.4 13.2 13-32.5 32.5zm86.6-21.4h44v-47.3q0-6.7.9-14.8zm65.5 0h18.2v14.3q0 2-1.3 3.45t-3.7 1.45H1556v35.3h-21.5V237h-61q-2.5 0-4.4-1.55t-2.4-3.85l-2.6-12.5 68.5-91.5h23.4zm134.3-17.8q0 18.9-4.05 32.85t-11.2 23.05-16.9 13.55-21.05 4.45-20.95-4.45-16.75-13.55-11.1-23.05-4-32.85q0-19 4-32.9t11.1-23 16.75-13.55 20.95-4.45 21.05 4.45 16.9 13.55 11.2 23 4.05 32.9m-25.5 0q0-15.7-2.3-26t-6.15-16.4-8.85-8.55-10.4-2.45q-5.3 0-10.25 2.45t-8.75 8.55-6.05 16.4-2.25 26 2.25 26 6.05 16.4 8.75 8.55 10.25 2.45q5.4 0 10.4-2.45t8.85-8.55 6.15-16.4 2.3-26m141.5 0q0 18.9-4.05 32.85t-11.2 23.05-16.9 13.55-21.05 4.45-20.95-4.45-16.75-13.55-11.1-23.05-4-32.85q0-19 4-32.9t11.1-23 16.75-13.55 20.95-4.45 21.05 4.45 16.9 13.55 11.2 23 4.05 32.9m-25.5 0q0-15.7-2.3-26t-6.15-16.4-8.85-8.55-10.4-2.45q-5.3 0-10.25 2.45t-8.75 8.55-6.05 16.4-2.25 26 2.25 26 6.05 16.4 8.75 8.55 10.25 2.45q5.4 0 10.4-2.45t8.85-8.55 6.15-16.4 2.3-26"/></svg>